<svg viewBox="0 0 24 24" fill="none" xmlns="http://www.w3.org/2000/svg">
<path d="M18.2197 4.71967C18.5126 4.42678 18.9873 4.42678 19.2802 4.71967C19.5731 5.01257 19.5731 5.48734 19.2802 5.78022L13.0605 11.9999L19.2802 18.2197C19.5731 18.5126 19.5731 18.9873 19.2802 19.2802C18.9873 19.5731 18.5126 19.5731 18.2197 19.2802L11.9999 13.0605L5.78022 19.2802C5.48734 19.5731 5.01257 19.5731 4.71967 19.2802C4.42678 18.9873 4.42678 18.5126 4.71967 18.2197L10.9394 11.9999L4.71967 5.78022C4.42678 5.48732 4.42678 5.01256 4.71967 4.71967C5.01256 4.42678 5.48732 4.42678 5.78022 4.71967L11.9999 10.9394L18.2197 4.71967Z" fill="currentColor"/>
</svg>
