<svg viewBox="0 0 24 24" fill="none" xmlns="http://www.w3.org/2000/svg">
<path fill-rule="evenodd" clip-rule="evenodd" d="M15.75 2.56055C16.1478 2.56055 16.5293 2.71877 16.8105 3L21 7.18945C21.2812 7.47069 21.4394 7.85232 21.4395 8.25C21.4394 8.64773 21.2812 9.02928 21 9.31055L9.75 20.5605C9.6108 20.6997 9.44553 20.8104 9.26367 20.8857C9.25448 20.8896 9.24461 20.8919 9.23535 20.8955L9.23047 20.8975C9.05788 20.9643 8.87469 21 8.68945 21H4.5C4.1022 21 3.72075 20.8418 3.43945 20.5605C3.15825 20.2793 3.00003 19.8977 3 19.5V15.3105C3.00003 15.1306 3.03356 14.9525 3.09668 14.7842C3.09992 14.7755 3.10189 14.7664 3.10547 14.7578C3.10829 14.7507 3.11132 14.7434 3.11426 14.7363C3.18964 14.5545 3.30027 14.3892 3.43945 14.25L14.6895 3C14.9707 2.71877 15.3522 2.56055 15.75 2.56055ZM4.5 19.5H7.18945L4.5 16.8105V19.5ZM4.81055 15L9 19.1895L16.9395 11.25L12.75 7.06055L4.81055 15ZM13.8105 6L18 10.1895L19.9395 8.25L15.75 4.06055L13.8105 6Z" fill="currentColor"/>
</svg>
