<svg viewBox="0 0 16 16" fill="none" xmlns="http://www.w3.org/2000/svg">
<path d="M2.63031 3H13.3698C13.4666 3 13.5614 3.02814 13.6426 3.08099C13.7238 3.13384 13.7878 3.20914 13.827 3.29772C13.8662 3.38631 13.8788 3.48437 13.8633 3.57999C13.8478 3.6756 13.8049 3.76466 13.7397 3.83634L9.63006 8.35697C9.54639 8.449 9.50003 8.56892 9.50003 8.6933V12.2324C9.50003 12.3147 9.47971 12.3958 9.44087 12.4683C9.40203 12.5409 9.34587 12.6028 9.27738 12.6484L7.27738 13.9818C7.20208 14.032 7.11457 14.0608 7.02418 14.0652C6.93378 14.0695 6.8439 14.0493 6.76411 14.0066C6.68431 13.9639 6.61761 13.9003 6.5711 13.8227C6.5246 13.745 6.50003 13.6562 6.50003 13.5657V8.6933C6.50003 8.56892 6.45367 8.449 6.37 8.35697L2.26034 3.83634C2.19518 3.76466 2.15225 3.6756 2.13675 3.57999C2.12125 3.48437 2.13387 3.38631 2.17305 3.29772C2.21224 3.20914 2.27632 3.13384 2.35749 3.08099C2.43867 3.02814 2.53345 3 2.63031 3V3Z" stroke="currentColor" stroke-linecap="round" stroke-linejoin="round"/>
</svg>
