<svg viewBox="0 0 16 16" fill="none" xmlns="http://www.w3.org/2000/svg">
<path d="M10.5 1.70703C10.7652 1.70703 11.0195 1.8125 11.207 2L14 4.79297C14.1875 4.98047 14.2929 5.23486 14.293 5.5C14.2929 5.76516 14.1875 6.01952 14 6.20703L6.35352 13.8535C6.25975 13.9473 6.13259 14 6 14H3C2.7348 14 2.4805 13.8945 2.29297 13.707C2.10549 13.5195 2.00002 13.2652 2 13V10.207C2.00002 10.0758 2.02593 9.94551 2.07617 9.82422C2.12642 9.70299 2.20017 9.5928 2.29297 9.5L9.79297 2C9.9805 1.8125 10.2348 1.70703 10.5 1.70703ZM3 10.207V13H5.79297L11.293 7.5L8.5 4.70703L3 10.207ZM9.20703 4L12 6.79297L13.293 5.5L10.5 2.70703L9.20703 4Z" fill="currentColor"/>
</svg>
