<svg viewBox="0 0 16 16" fill="none" xmlns="http://www.w3.org/2000/svg">
<path fill-rule="evenodd" clip-rule="evenodd" d="M8.61189 2.7646C8.38109 2.2256 7.61699 2.2256 7.38619 2.7646L6.10535 5.7559C6.03791 5.9134 5.91242 6.03889 5.75492 6.10633L2.76363 7.38717C2.22463 7.61797 2.22462 8.38207 2.76363 8.61287L5.75492 9.89371C5.91242 9.96115 6.03791 10.0866 6.10535 10.2441L7.38619 13.2354C7.61699 13.7744 8.38109 13.7744 8.61189 13.2354L9.89273 10.2441C9.96017 10.0866 10.0857 9.96115 10.2432 9.89371L13.2345 8.61287C13.7735 8.38207 13.7735 7.61797 13.2345 7.38717L10.2432 6.10633C10.0857 6.03889 9.96017 5.9134 9.89273 5.7559L8.61189 2.7646ZM7.99904 3.87385L7.02462 6.14952C6.85602 6.54327 6.5423 6.857 6.14854 7.0256L3.87288 8.00002L6.14854 8.97444C6.5423 9.14304 6.85602 9.45676 7.02462 9.85052L7.99904 12.1262L8.97346 9.85052C9.14206 9.45677 9.45579 9.14304 9.84954 8.97444L12.1252 8.00002L9.84954 7.0256C9.45579 6.857 9.14206 6.54327 8.97346 6.14952L7.99904 3.87385Z" fill="currentColor"/>
</svg>
