<svg viewBox="0 0 32 32" fill="none" xmlns="http://www.w3.org/2000/svg">
<path fill-rule="evenodd" clip-rule="evenodd" d="M18.8172 4.38732C19.7079 3.73412 20.9595 3.92668 21.6127 4.81741L28.3467 14.0001H10.6499C9.54533 14.0001 8.6499 13.1047 8.6499 12.0001C8.6499 10.8956 9.54533 10.0001 10.6499 10.0001H20.4531L18.3871 7.18286C17.7339 6.29213 17.9265 5.04052 18.8172 4.38732Z" fill="#38D200"/>
<path fill-rule="evenodd" clip-rule="evenodd" d="M13.5827 25.6127C12.692 26.2659 11.4404 26.0733 10.7872 25.1826L4.0532 15.9999H21.75C22.8546 15.9999 23.75 16.8953 23.75 17.9999C23.75 19.1044 22.8546 19.9999 21.75 19.9999H11.9468L14.0128 22.8171C14.666 23.7079 14.4734 24.9595 13.5827 25.6127Z" fill="#0F7AED"/>
</svg>
